<?xml version="1.0" encoding="UTF-8" standalone="no"?>
<!DOCTYPE svg PUBLIC "-//W3C//DTD SVG 1.1//EN" "http://www.w3.org/Graphics/SVG/1.1/DTD/svg11.dtd">
<svg xmlns="http://www.w3.org/2000/svg" version="1.1" viewBox="0 0 805 490">
<g stroke-width="5.00" fill="none" stroke-linecap="butt">
<path stroke="#a2abb6" vector-effect="non-scaling-stroke" d="
  M 353.69 210.81
  L 354.03 248.46
  Q 354.06 251.75 357.39 251.75
  L 388.21 251.77
  A 0.52 0.51 0.6 0 1 388.72 252.28
  L 388.76 276.67
  A 0.50 0.48 -0.6 0 0 389.27 277.15
  L 394.33 277.14
  A 0.66 0.65 -0.0 0 0 394.99 276.49
  L 394.99 247.80
  Q 394.99 245.57 392.95 245.56
  L 360.75 245.36
  A 0.52 0.51 0.6 0 1 360.24 244.85
  Q 360.05 230.46 360.02 216.06
  C 360.01 213.78 360.40 210.05 360.01 207.09
  Q 359.61 204.08 356.61 204.07
  L 340.31 204.00
  A 0.36 0.35 12.1 0 1 339.98 203.50
  Q 349.58 182.83 359.25 162.19
  C 360.35 159.85 360.34 157.52 360.64 155.01
  C 363.03 134.54 380.28 121.06 400.71 121.49
  A 0.52 0.52 -90.0 0 1 401.22 122.00
  Q 401.47 152.47 401.56 182.93
  Q 401.58 190.61 406.92 197.36
  C 408.49 199.34 409.00 201.42 409.94 203.68
  Q 415.39 216.79 428.78 219.39
  C 431.99 220.01 436.03 219.70 439.57 219.78
  A 0.50 0.49 -76.4 0 1 440.00 220.49
  C 437.84 225.07 433.26 232.56 433.23 237.52
  Q 433.11 256.96 433.27 276.47
  A 0.60 0.59 -85.5 0 0 433.77 277.06
  Q 436.40 277.50 439.02 276.88
  A 0.64 0.64 -6.9 0 0 439.51 276.26
  Q 439.49 257.67 439.50 239.06
  C 439.50 233.84 444.74 225.14 447.07 220.30
  A 0.80 0.78 12.2 0 1 447.79 219.85
  Q 470.23 219.90 492.64 219.76
  Q 500.87 219.71 505.04 218.27
  Q 516.53 214.33 520.62 202.08
  C 522.21 197.34 525.41 194.26 526.97 189.41
  Q 528.25 185.46 528.25 177.95
  Q 528.26 149.42 528.23 120.89
  C 528.22 114.14 527.35 108.29 523.54 103.43
  Q 521.68 101.06 521.04 98.99
  C 517.21 86.57 507.93 80.10 494.75 80.07
  Q 468.44 80.01 442.13 79.99
  Q 429.83 79.99 425.04 81.55
  Q 412.93 85.52 408.80 98.91
  Q 408.19 100.88 406.84 102.63
  Q 402.93 107.73 401.81 114.25
  A 0.66 0.65 -87.1 0 1 401.22 114.79
  C 395.88 115.21 390.28 115.50 385.35 117.17
  Q 358.05 126.48 354.17 155.69
  Q 353.76 158.80 352.61 161.29
  Q 342.49 183.25 332.28 205.16
  C 331.37 207.12 331.65 209.80 333.99 210.26
  Q 338.03 211.06 353.19 210.34
  A 0.48 0.47 87.7 0 1 353.69 210.81"
/>
<path stroke="#a2abb6" vector-effect="non-scaling-stroke" d="
  M 367.85 315.86
  A 10.28 10.28 0.0 0 0 357.57 305.58
  A 10.28 10.28 0.0 0 0 347.29 315.86
  A 10.28 10.28 0.0 0 0 357.57 326.14
  A 10.28 10.28 0.0 0 0 367.85 315.86"
/>
<path stroke="#a2abb6" vector-effect="non-scaling-stroke" d="
  M 390.17 363.58
  C 398.54 371.18 423.48 381.52 424.76 392.80
  Q 425.02 395.16 423.20 396.67
  C 417.38 401.49 406.58 401.97 399.68 398.72
  C 395.67 396.82 392.28 392.70 389.17 389.27
  A 1.30 0.84 61.1 0 0 388.34 388.82
  L 384.36 388.84
  A 0.58 0.54 89.5 0 0 383.83 389.42
  L 383.85 398.91
  A 0.80 0.75 12.7 0 0 384.33 399.61
  Q 399.67 406.46 416.56 405.81
  C 428.39 405.36 439.53 397.97 437.24 384.66
  C 434.73 370.04 414.46 360.85 402.75 353.94
  C 396.96 350.52 390.13 344.91 398.79 339.99
  C 410.32 333.43 416.68 338.85 424.08 347.22
  A 1.26 0.81 61.1 0 0 424.91 347.67
  L 429.45 347.59
  A 0.59 0.53 89.0 0 0 429.97 346.99
  L 429.79 338.04
  A 0.87 0.78 13.4 0 0 429.29 337.32
  C 418.42 332.33 405.38 330.32 394.90 336.13
  C 383.91 342.21 379.27 353.69 390.17 363.58"
/>
<path stroke="#a2abb6" vector-effect="non-scaling-stroke" d="
  M 450.50 344.28
  C 440.20 360.95 466.45 370.90 477.23 378.79
  C 485.75 385.02 498.81 397.00 477.79 400.51
  C 466.79 402.35 461.06 398.10 453.63 389.31
  A 1.26 0.89 64.2 0 0 452.82 388.86
  L 448.78 388.77
  A 0.54 0.50 -89.5 0 0 448.27 389.31
  L 448.25 398.64
  A 1.28 1.27 11.6 0 0 449.03 399.81
  Q 465.02 406.69 482.19 405.79
  C 494.18 405.17 504.24 396.35 501.50 383.94
  C 498.18 368.91 476.02 359.36 463.91 352.10
  C 459.10 349.22 457.05 343.80 462.77 340.28
  C 473.95 333.40 481.19 338.61 488.39 347.21
  A 1.21 1.07 68.7 0 0 489.21 347.63
  L 493.63 347.82
  A 0.51 0.50 1.1 0 0 494.16 347.32
  L 494.20 338.07
  A 0.82 0.77 13.3 0 0 493.73 337.36
  C 479.87 330.98 459.75 329.31 450.50 344.28"
/>
<path stroke="#a2abb6" vector-effect="non-scaling-stroke" d="
  M 524.69 397.56
  C 546.23 414.73 584.42 407.38 589.96 377.18
  C 597.90 333.89 539.51 316.77 517.85 349.69
  C 508.22 364.34 510.58 386.32 524.69 397.56"
/>
<path stroke="#a2abb6" vector-effect="non-scaling-stroke" d="
  M 208.90 333.22
  L 184.71 333.16
  A 0.62 0.61 -84.2 0 0 184.11 333.66
  Q 183.56 336.19 184.37 337.60
  C 187.68 343.35 189.35 346.65 189.29 351.75
  C 188.99 376.85 186.47 406.94 222.04 406.36
  C 236.97 406.11 247.04 398.62 247.16 382.46
  Q 247.28 365.85 247.26 349.25
  Q 247.25 343.25 252.34 338.03
  A 1.35 0.81 -33.5 0 0 252.75 337.17
  L 252.57 333.52
  A 0.60 0.52 -1.0 0 0 251.97 333.02
  L 236.87 333.07
  A 0.55 0.51 0.5 0 0 236.32 333.57
  L 236.21 336.83
  A 1.48 1.05 32.4 0 0 236.57 337.71
  C 242.18 344.22 241.44 349.16 241.46 359.32
  Q 241.49 372.97 241.11 381.93
  Q 240.90 387.03 238.22 391.26
  C 231.33 402.12 211.12 399.99 205.79 388.48
  Q 204.51 385.72 204.32 380.29
  Q 203.83 366.99 203.53 353.66
  C 203.39 347.52 205.49 343.07 209.00 338.39
  A 1.89 1.56 -29.0 0 0 209.35 337.50
  L 209.62 334.02
  A 0.74 0.72 -87.5 0 0 208.90 333.22"
/>
<path stroke="#a2abb6" vector-effect="non-scaling-stroke" d="
  M 286.27 340.68
  L 286.16 333.55
  A 0.54 0.50 89.4 0 0 285.66 333.02
  L 262.90 333.08
  A 0.59 0.56 3.3 0 0 262.32 333.57
  C 261.76 338.18 264.39 339.45 266.09 342.58
  C 271.51 352.58 269.91 367.46 269.83 377.81
  C 269.76 387.59 268.45 394.10 262.61 401.16
  A 1.46 0.93 -35.3 0 0 262.25 402.04
  L 262.35 405.05
  A 0.58 0.50 -0.5 0 0 262.93 405.54
  L 293.06 405.54
  A 0.61 0.56 3.8 0 0 293.66 405.06
  C 293.99 403.00 294.01 401.83 292.66 400.06
  C 287.96 393.89 286.22 388.12 286.15 379.85
  Q 286.05 366.98 286.22 354.05
  C 286.37 342.46 295.20 340.03 303.88 345.91
  Q 312.39 351.68 313.15 363.02
  C 314.10 377.12 315.00 390.74 305.84 401.13
  A 1.43 1.17 -29.7 0 0 305.50 402.01
  L 305.54 404.98
  A 0.52 0.51 0.0 0 0 306.06 405.49
  L 336.71 405.49
  A 0.63 0.53 2.5 0 0 337.33 405.01
  L 337.58 402.23
  A 1.35 0.93 34.4 0 0 337.24 401.35
  C 328.10 390.74 329.73 379.41 329.14 366.52
  C 328.61 354.59 323.78 341.30 311.02 337.98
  C 304.08 336.17 296.38 336.60 289.84 339.78
  Q 288.35 340.50 286.80 341.03
  A 0.40 0.38 -10.4 0 1 286.27 340.68"
/>
<path stroke="#a2abb6" vector-effect="non-scaling-stroke" d="
  M 352.44 380.94
  Q 352.21 392.48 346.26 401.36
  A 1.67 1.06 -39.1 0 0 345.96 402.26
  L 346.10 405.05
  A 0.57 0.52 -1.0 0 0 346.67 405.55
  L 372.70 405.50
  A 0.52 0.51 0.0 0 0 373.22 404.99
  L 373.24 402.04
  A 1.82 1.42 34.1 0 0 372.94 401.12
  Q 366.51 391.62 366.54 379.74
  Q 366.56 371.81 366.45 333.66
  A 0.54 0.50 89.4 0 0 365.95 333.13
  L 346.71 333.16
  A 0.62 0.60 -84.8 0 0 346.12 333.67
  C 345.47 337.28 348.05 340.50 349.72 343.54
  Q 351.75 347.23 352.25 355.00
  Q 352.79 363.26 352.44 380.94"
/>
<path stroke="#a2abb6" vector-effect="non-scaling-stroke" d="
  M 624.56 340.70
  L 624.38 333.59
  A 0.53 0.52 89.4 0 0 623.86 333.07
  L 601.41 333.06
  A 0.57 0.51 -0.0 0 0 600.84 333.57
  L 600.83 337.08
  A 1.54 0.76 39.0 0 0 601.23 337.95
  C 610.65 349.18 608.25 363.27 608.25 376.51
  C 608.25 386.99 607.28 393.62 601.04 401.11
  A 1.38 1.32 -26.9 0 0 600.73 401.99
  L 600.79 404.97
  A 0.52 0.51 89.4 0 0 601.30 405.48
  L 631.82 405.45
  A 0.49 0.48 89.4 0 0 632.30 404.95
  L 632.25 402.01
  A 1.50 1.27 -69.1 0 0 631.94 401.13
  C 626.77 394.87 624.76 388.95 624.58 380.36
  Q 624.16 358.91 624.57 351.58
  C 625.08 342.35 635.37 341.04 641.69 345.28
  Q 650.39 351.13 651.59 361.94
  Q 652.56 370.62 651.69 382.54
  C 651.15 390.07 649.20 395.39 644.53 400.80
  Q 643.33 402.18 644.04 405.08
  A 0.66 0.64 -6.3 0 0 644.66 405.56
  L 675.20 405.57
  A 0.63 0.53 2.0 0 0 675.82 405.08
  L 676.08 402.22
  A 1.35 0.84 36.0 0 0 675.73 401.35
  Q 668.20 392.65 668.10 381.00
  C 667.97 364.93 668.14 340.81 646.90 337.36
  Q 635.92 335.58 625.01 340.97
  A 0.31 0.31 -13.6 0 1 624.56 340.70"
/>
<path stroke="#a2abb6" vector-effect="non-scaling-stroke" d="
  M 427.33 87.36
  C 417.07 90.49 411.67 102.53 415.51 112.14
  C 418.43 119.44 424.15 123.38 431.90 124.36
  A 1.22 1.02 -86.6 0 0 433.05 123.14
  L 433.13 119.01
  A 0.81 0.60 -81.7 0 0 432.75 118.31
  C 431.66 117.85 430.12 117.71 429.25 117.40
  C 418.47 113.50 417.45 98.38 428.02 94.04
  Q 431.29 92.70 439.67 92.72
  Q 470.83 92.77 501.98 92.76
  C 505.06 92.76 508.00 93.18 510.71 94.02
  Q 512.10 94.45 511.15 93.35
  Q 505.44 86.62 496.50 86.60
  Q 467.13 86.51 437.77 86.50
  Q 430.14 86.50 427.33 87.36"
/>
<path stroke="#a2abb6" vector-effect="non-scaling-stroke" d="
  M 478.72 111.36
  Q 480.69 104.76 485.43 99.98
  Q 486.15 99.25 485.12 99.25
  L 444.42 99.26
  Q 443.63 99.26 444.21 99.79
  Q 449.27 104.53 451.16 111.23
  A 0.67 0.65 82.5 0 0 451.79 111.73
  L 478.22 111.73
  A 0.52 0.52 8.2 0 0 478.72 111.36"
/>
<path stroke="#a2abb6" vector-effect="non-scaling-stroke" d="
  M 521.10 112.76
  C 516.20 96.13 491.36 94.10 485.54 111.12
  A 0.40 0.38 -79.4 0 0 485.88 111.65
  L 491.60 111.68
  A 1.16 0.86 -65.9 0 0 492.40 111.23
  C 500.55 100.69 515.71 105.84 515.72 119.00
  Q 515.76 148.12 515.74 177.26
  A 1.51 1.46 27.3 0 0 516.04 178.15
  Q 519.04 182.13 520.81 186.81
  Q 520.98 187.27 521.16 186.80
  Q 521.98 184.58 521.98 183.93
  Q 522.03 153.20 521.98 122.45
  Q 521.97 115.74 521.10 112.76"
/>
<path stroke="#a2abb6" vector-effect="non-scaling-stroke" d="
  M 427.05 103.92
  A 1.07 1.06 16.9 0 0 427.88 105.47
  C 436.82 106.49 439.52 113.34 439.51 121.65
  Q 439.48 144.90 439.51 168.20
  A 0.61 0.50 -89.5 0 0 440.00 168.81
  L 445.28 168.86
  A 0.59 0.49 90.0 0 0 445.77 168.27
  Q 445.74 145.00 445.74 121.71
  C 445.74 110.82 442.50 103.13 431.50 99.79
  A 1.41 1.12 36.0 0 0 430.56 99.83
  Q 428.70 100.71 427.05 103.92"
/>
<path stroke="#a2abb6" vector-effect="non-scaling-stroke" d="
  M 408.44 113.42
  Q 408.00 115.72 407.98 118.06
  Q 407.73 147.52 407.77 176.99
  Q 407.78 184.40 408.90 187.78
  C 414.64 205.04 436.97 204.68 444.52 188.76
  A 0.34 0.33 -77.1 0 0 444.22 188.28
  L 438.14 188.31
  A 1.04 0.92 -70.1 0 0 437.35 188.74
  C 431.72 196.35 420.21 196.46 415.71 187.67
  Q 414.31 184.94 414.27 178.59
  Q 414.12 150.81 414.00 122.97
  Q 414.00 122.57 413.73 122.06
  L 409.11 113.35
  Q 408.63 112.45 408.44 113.42"
/>
<path stroke="#a2abb6" vector-effect="non-scaling-stroke" d="
  M 506.52 113.80
  C 501.10 117.90 499.21 118.12 491.74 118.15
  Q 472.39 118.25 452.98 118.25
  A 0.59 0.49 -0.0 0 0 452.39 118.74
  L 452.44 123.99
  A 0.60 0.49 0.0 0 0 453.04 124.48
  Q 475.37 124.54 497.68 124.46
  Q 503.52 124.44 508.88 119.85
  A 1.21 1.12 -20.8 0 0 509.29 119.02
  Q 509.41 115.76 507.47 113.86
  A 0.73 0.73 48.6 0 0 506.52 113.80"
/>
<path stroke="#a2abb6" vector-effect="non-scaling-stroke" d="
  M 433.23 168.54
  C 432.82 156.23 432.97 143.82 433.03 131.45
  A 0.58 0.56 4.6 0 0 432.53 130.88
  Q 426.62 130.12 421.02 127.93
  A 0.35 0.34 10.5 0 0 420.55 128.25
  L 420.54 171.95
  A 0.31 0.31 -13.1 0 0 420.99 172.23
  Q 426.57 169.62 432.75 169.08
  A 0.53 0.52 -4.1 0 0 433.23 168.54"
/>
<path stroke="#a2abb6" vector-effect="non-scaling-stroke" d="
  M 496.54 168.43
  Q 496.48 168.57 496.47 168.72
  A 0.62 0.47 2.0 0 0 497.08 169.21
  Q 503.16 169.41 508.55 172.22
  A 0.50 0.50 -76.0 0 0 509.28 171.78
  L 509.25 128.64
  A 0.83 0.82 -13.0 0 0 508.06 127.90
  Q 502.77 130.51 497.15 130.78
  A 0.52 0.51 -1.2 0 0 496.65 131.29
  L 496.69 167.90
  Q 496.69 168.08 496.54 168.43"
/>
<path stroke="#a2abb6" vector-effect="non-scaling-stroke" d="
  M 477.59 131.35
  A 0.36 0.36 0.0 0 0 477.23 130.99
  L 452.61 130.99
  A 0.36 0.36 0.0 0 0 452.25 131.35
  L 452.25 168.63
  A 0.36 0.36 0.0 0 0 452.61 168.99
  L 477.23 168.99
  A 0.36 0.36 0.0 0 0 477.59 168.63
  L 477.59 131.35"
/>
<path stroke="#a2abb6" vector-effect="non-scaling-stroke" d="
  M 502.51 196.47
  A 1.36 1.36 17.8 0 0 501.49 194.49
  C 491.42 193.09 490.23 184.67 490.24 175.45
  Q 490.28 153.45 490.21 131.43
  A 0.52 0.50 0.6 0 0 489.70 130.93
  L 484.53 130.82
  A 0.50 0.49 1.1 0 0 484.01 131.31
  Q 483.98 154.13 484.01 176.81
  C 484.03 187.98 486.16 195.42 496.85 199.60
  Q 500.20 200.91 502.51 196.47"
/>
<path stroke="#a2abb6" vector-effect="non-scaling-stroke" d="
  M 420.64 180.94
  Q 420.42 184.01 422.65 186.26
  A 0.52 0.49 -44.2 0 0 423.36 186.25
  Q 428.08 181.64 435.00 181.74
  Q 442.99 181.85 477.07 181.71
  A 0.51 0.50 -1.1 0 0 477.57 181.20
  L 477.46 176.03
  A 0.52 0.52 0.0 0 0 476.95 175.52
  Q 438.44 175.38 431.32 175.55
  Q 425.78 175.69 421.05 180.09
  A 1.29 1.23 -20.5 0 0 420.64 180.94"
/>
<path stroke="#a2abb6" vector-effect="non-scaling-stroke" d="
  M 497.24 181.71
  C 514.32 184.43 512.58 207.01 495.74 207.21
  Q 470.42 207.51 425.52 207.07
  C 423.17 207.05 420.87 206.34 418.56 205.89
  Q 418.06 205.79 418.38 206.18
  Q 424.46 213.53 434.25 213.53
  Q 463.48 213.54 492.72 213.48
  Q 499.89 213.46 503.05 212.36
  C 522.67 205.48 518.11 176.97 497.06 175.52
  A 0.45 0.42 -89.5 0 0 496.61 175.99
  L 496.77 181.13
  A 0.62 0.55 -87.3 0 0 497.24 181.71"
/>
<path stroke="#a2abb6" vector-effect="non-scaling-stroke" d="
  M 451.25 188.59
  C 450.36 192.52 447.29 197.24 444.76 199.68
  Q 443.68 200.73 445.19 200.73
  L 485.24 200.74
  Q 486.34 200.74 485.53 199.99
  Q 480.50 195.29 478.66 188.73
  A 0.67 0.67 81.3 0 0 478.02 188.25
  L 451.66 188.26
  A 0.43 0.42 -83.0 0 0 451.25 188.59"
/>
<path stroke="#a2abb6" vector-effect="non-scaling-stroke" d="
  M 536.32 386.89
  C 539.82 392.79 545.44 398.78 552.17 400.86
  C 565.10 404.85 573.64 393.45 574.47 382.00
  Q 575.90 362.00 562.60 346.91
  C 557.57 341.21 549.14 336.75 541.62 338.65
  C 521.78 343.69 529.52 375.40 536.32 386.89"
/>
</g>
<path fill="#ffffff" d="
  M 0.00 0.00
  L 805.00 0.00
  L 805.00 490.00
  L 0.00 490.00
  L 0.00 0.00
  Z
  M 353.69 210.81
  L 354.03 248.46
  Q 354.06 251.75 357.39 251.75
  L 388.21 251.77
  A 0.52 0.51 0.6 0 1 388.72 252.28
  L 388.76 276.67
  A 0.50 0.48 -0.6 0 0 389.27 277.15
  L 394.33 277.14
  A 0.66 0.65 -0.0 0 0 394.99 276.49
  L 394.99 247.80
  Q 394.99 245.57 392.95 245.56
  L 360.75 245.36
  A 0.52 0.51 0.6 0 1 360.24 244.85
  Q 360.05 230.46 360.02 216.06
  C 360.01 213.78 360.40 210.05 360.01 207.09
  Q 359.61 204.08 356.61 204.07
  L 340.31 204.00
  A 0.36 0.35 12.1 0 1 339.98 203.50
  Q 349.58 182.83 359.25 162.19
  C 360.35 159.85 360.34 157.52 360.64 155.01
  C 363.03 134.54 380.28 121.06 400.71 121.49
  A 0.52 0.52 -90.0 0 1 401.22 122.00
  Q 401.47 152.47 401.56 182.93
  Q 401.58 190.61 406.92 197.36
  C 408.49 199.34 409.00 201.42 409.94 203.68
  Q 415.39 216.79 428.78 219.39
  C 431.99 220.01 436.03 219.70 439.57 219.78
  A 0.50 0.49 -76.4 0 1 440.00 220.49
  C 437.84 225.07 433.26 232.56 433.23 237.52
  Q 433.11 256.96 433.27 276.47
  A 0.60 0.59 -85.5 0 0 433.77 277.06
  Q 436.40 277.50 439.02 276.88
  A 0.64 0.64 -6.9 0 0 439.51 276.26
  Q 439.49 257.67 439.50 239.06
  C 439.50 233.84 444.74 225.14 447.07 220.30
  A 0.80 0.78 12.2 0 1 447.79 219.85
  Q 470.23 219.90 492.64 219.76
  Q 500.87 219.71 505.04 218.27
  Q 516.53 214.33 520.62 202.08
  C 522.21 197.34 525.41 194.26 526.97 189.41
  Q 528.25 185.46 528.25 177.95
  Q 528.26 149.42 528.23 120.89
  C 528.22 114.14 527.35 108.29 523.54 103.43
  Q 521.68 101.06 521.04 98.99
  C 517.21 86.57 507.93 80.10 494.75 80.07
  Q 468.44 80.01 442.13 79.99
  Q 429.83 79.99 425.04 81.55
  Q 412.93 85.52 408.80 98.91
  Q 408.19 100.88 406.84 102.63
  Q 402.93 107.73 401.81 114.25
  A 0.66 0.65 -87.1 0 1 401.22 114.79
  C 395.88 115.21 390.28 115.50 385.35 117.17
  Q 358.05 126.48 354.17 155.69
  Q 353.76 158.80 352.61 161.29
  Q 342.49 183.25 332.28 205.16
  C 331.37 207.12 331.65 209.80 333.99 210.26
  Q 338.03 211.06 353.19 210.34
  A 0.48 0.47 87.7 0 1 353.69 210.81
  Z
  M 367.85 315.86
  A 10.28 10.28 0.0 0 0 357.57 305.58
  A 10.28 10.28 0.0 0 0 347.29 315.86
  A 10.28 10.28 0.0 0 0 357.57 326.14
  A 10.28 10.28 0.0 0 0 367.85 315.86
  Z
  M 390.17 363.58
  C 398.54 371.18 423.48 381.52 424.76 392.80
  Q 425.02 395.16 423.20 396.67
  C 417.38 401.49 406.58 401.97 399.68 398.72
  C 395.67 396.82 392.28 392.70 389.17 389.27
  A 1.30 0.84 61.1 0 0 388.34 388.82
  L 384.36 388.84
  A 0.58 0.54 89.5 0 0 383.83 389.42
  L 383.85 398.91
  A 0.80 0.75 12.7 0 0 384.33 399.61
  Q 399.67 406.46 416.56 405.81
  C 428.39 405.36 439.53 397.97 437.24 384.66
  C 434.73 370.04 414.46 360.85 402.75 353.94
  C 396.96 350.52 390.13 344.91 398.79 339.99
  C 410.32 333.43 416.68 338.85 424.08 347.22
  A 1.26 0.81 61.1 0 0 424.91 347.67
  L 429.45 347.59
  A 0.59 0.53 89.0 0 0 429.97 346.99
  L 429.79 338.04
  A 0.87 0.78 13.4 0 0 429.29 337.32
  C 418.42 332.33 405.38 330.32 394.90 336.13
  C 383.91 342.21 379.27 353.69 390.17 363.58
  Z
  M 450.50 344.28
  C 440.20 360.95 466.45 370.90 477.23 378.79
  C 485.75 385.02 498.81 397.00 477.79 400.51
  C 466.79 402.35 461.06 398.10 453.63 389.31
  A 1.26 0.89 64.2 0 0 452.82 388.86
  L 448.78 388.77
  A 0.54 0.50 -89.5 0 0 448.27 389.31
  L 448.25 398.64
  A 1.28 1.27 11.6 0 0 449.03 399.81
  Q 465.02 406.69 482.19 405.79
  C 494.18 405.17 504.24 396.35 501.50 383.94
  C 498.18 368.91 476.02 359.36 463.91 352.10
  C 459.10 349.22 457.05 343.80 462.77 340.28
  C 473.95 333.40 481.19 338.61 488.39 347.21
  A 1.21 1.07 68.7 0 0 489.21 347.63
  L 493.63 347.82
  A 0.51 0.50 1.1 0 0 494.16 347.32
  L 494.20 338.07
  A 0.82 0.77 13.3 0 0 493.73 337.36
  C 479.87 330.98 459.75 329.31 450.50 344.28
  Z
  M 524.69 397.56
  C 546.23 414.73 584.42 407.38 589.96 377.18
  C 597.90 333.89 539.51 316.77 517.85 349.69
  C 508.22 364.34 510.58 386.32 524.69 397.56
  Z
  M 208.90 333.22
  L 184.71 333.16
  A 0.62 0.61 -84.2 0 0 184.11 333.66
  Q 183.56 336.19 184.37 337.60
  C 187.68 343.35 189.35 346.65 189.29 351.75
  C 188.99 376.85 186.47 406.94 222.04 406.36
  C 236.97 406.11 247.04 398.62 247.16 382.46
  Q 247.28 365.85 247.26 349.25
  Q 247.25 343.25 252.34 338.03
  A 1.35 0.81 -33.5 0 0 252.75 337.17
  L 252.57 333.52
  A 0.60 0.52 -1.0 0 0 251.97 333.02
  L 236.87 333.07
  A 0.55 0.51 0.5 0 0 236.32 333.57
  L 236.21 336.83
  A 1.48 1.05 32.4 0 0 236.57 337.71
  C 242.18 344.22 241.44 349.16 241.46 359.32
  Q 241.49 372.97 241.11 381.93
  Q 240.90 387.03 238.22 391.26
  C 231.33 402.12 211.12 399.99 205.79 388.48
  Q 204.51 385.72 204.32 380.29
  Q 203.83 366.99 203.53 353.66
  C 203.39 347.52 205.49 343.07 209.00 338.39
  A 1.89 1.56 -29.0 0 0 209.35 337.50
  L 209.62 334.02
  A 0.74 0.72 -87.5 0 0 208.90 333.22
  Z
  M 286.27 340.68
  L 286.16 333.55
  A 0.54 0.50 89.4 0 0 285.66 333.02
  L 262.90 333.08
  A 0.59 0.56 3.3 0 0 262.32 333.57
  C 261.76 338.18 264.39 339.45 266.09 342.58
  C 271.51 352.58 269.91 367.46 269.83 377.81
  C 269.76 387.59 268.45 394.10 262.61 401.16
  A 1.46 0.93 -35.3 0 0 262.25 402.04
  L 262.35 405.05
  A 0.58 0.50 -0.5 0 0 262.93 405.54
  L 293.06 405.54
  A 0.61 0.56 3.8 0 0 293.66 405.06
  C 293.99 403.00 294.01 401.83 292.66 400.06
  C 287.96 393.89 286.22 388.12 286.15 379.85
  Q 286.05 366.98 286.22 354.05
  C 286.37 342.46 295.20 340.03 303.88 345.91
  Q 312.39 351.68 313.15 363.02
  C 314.10 377.12 315.00 390.74 305.84 401.13
  A 1.43 1.17 -29.7 0 0 305.50 402.01
  L 305.54 404.98
  A 0.52 0.51 0.0 0 0 306.06 405.49
  L 336.71 405.49
  A 0.63 0.53 2.5 0 0 337.33 405.01
  L 337.58 402.23
  A 1.35 0.93 34.4 0 0 337.24 401.35
  C 328.10 390.74 329.73 379.41 329.14 366.52
  C 328.61 354.59 323.78 341.30 311.02 337.98
  C 304.08 336.17 296.38 336.60 289.84 339.78
  Q 288.35 340.50 286.80 341.03
  A 0.40 0.38 -10.4 0 1 286.27 340.68
  Z
  M 352.44 380.94
  Q 352.21 392.48 346.26 401.36
  A 1.67 1.06 -39.1 0 0 345.96 402.26
  L 346.10 405.05
  A 0.57 0.52 -1.0 0 0 346.67 405.55
  L 372.70 405.50
  A 0.52 0.51 0.0 0 0 373.22 404.99
  L 373.24 402.04
  A 1.82 1.42 34.1 0 0 372.94 401.12
  Q 366.51 391.62 366.54 379.74
  Q 366.56 371.81 366.45 333.66
  A 0.54 0.50 89.4 0 0 365.95 333.13
  L 346.71 333.16
  A 0.62 0.60 -84.8 0 0 346.12 333.67
  C 345.47 337.28 348.05 340.50 349.72 343.54
  Q 351.75 347.23 352.25 355.00
  Q 352.79 363.26 352.44 380.94
  Z
  M 624.56 340.70
  L 624.38 333.59
  A 0.53 0.52 89.4 0 0 623.86 333.07
  L 601.41 333.06
  A 0.57 0.51 -0.0 0 0 600.84 333.57
  L 600.83 337.08
  A 1.54 0.76 39.0 0 0 601.23 337.95
  C 610.65 349.18 608.25 363.27 608.25 376.51
  C 608.25 386.99 607.28 393.62 601.04 401.11
  A 1.38 1.32 -26.9 0 0 600.73 401.99
  L 600.79 404.97
  A 0.52 0.51 89.4 0 0 601.30 405.48
  L 631.82 405.45
  A 0.49 0.48 89.4 0 0 632.30 404.95
  L 632.25 402.01
  A 1.50 1.27 -69.1 0 0 631.94 401.13
  C 626.77 394.87 624.76 388.95 624.58 380.36
  Q 624.16 358.91 624.57 351.58
  C 625.08 342.35 635.37 341.04 641.69 345.28
  Q 650.39 351.13 651.59 361.94
  Q 652.56 370.62 651.69 382.54
  C 651.15 390.07 649.20 395.39 644.53 400.80
  Q 643.33 402.18 644.04 405.08
  A 0.66 0.64 -6.3 0 0 644.66 405.56
  L 675.20 405.57
  A 0.63 0.53 2.0 0 0 675.82 405.08
  L 676.08 402.22
  A 1.35 0.84 36.0 0 0 675.73 401.35
  Q 668.20 392.65 668.10 381.00
  C 667.97 364.93 668.14 340.81 646.90 337.36
  Q 635.92 335.58 625.01 340.97
  A 0.31 0.31 -13.6 0 1 624.56 340.70
  Z"
/>
<path fill="#44576d" d="
  M 353.19 210.34
  Q 338.03 211.06 333.99 210.26
  C 331.65 209.80 331.37 207.12 332.28 205.16
  Q 342.49 183.25 352.61 161.29
  Q 353.76 158.80 354.17 155.69
  Q 358.05 126.48 385.35 117.17
  C 390.28 115.50 395.88 115.21 401.22 114.79
  A 0.66 0.65 -87.1 0 0 401.81 114.25
  Q 402.93 107.73 406.84 102.63
  Q 408.19 100.88 408.80 98.91
  Q 412.93 85.52 425.04 81.55
  Q 429.83 79.99 442.13 79.99
  Q 468.44 80.01 494.75 80.07
  C 507.93 80.10 517.21 86.57 521.04 98.99
  Q 521.68 101.06 523.54 103.43
  C 527.35 108.29 528.22 114.14 528.23 120.89
  Q 528.26 149.42 528.25 177.95
  Q 528.25 185.46 526.97 189.41
  C 525.41 194.26 522.21 197.34 520.62 202.08
  Q 516.53 214.33 505.04 218.27
  Q 500.87 219.71 492.64 219.76
  Q 470.23 219.90 447.79 219.85
  A 0.80 0.78 12.2 0 0 447.07 220.30
  C 444.74 225.14 439.50 233.84 439.50 239.06
  Q 439.49 257.67 439.51 276.26
  A 0.64 0.64 -6.9 0 1 439.02 276.88
  Q 436.40 277.50 433.77 277.06
  A 0.60 0.59 -85.5 0 1 433.27 276.47
  Q 433.11 256.96 433.23 237.52
  C 433.26 232.56 437.84 225.07 440.00 220.49
  A 0.50 0.49 -76.4 0 0 439.57 219.78
  C 436.03 219.70 431.99 220.01 428.78 219.39
  Q 415.39 216.79 409.94 203.68
  C 409.00 201.42 408.49 199.34 406.92 197.36
  Q 401.58 190.61 401.56 182.93
  Q 401.47 152.47 401.22 122.00
  A 0.52 0.52 -88.4 0 0 400.71 121.49
  C 380.28 121.06 363.03 134.54 360.64 155.01
  C 360.34 157.52 360.35 159.85 359.25 162.19
  Q 349.58 182.83 339.98 203.50
  A 0.36 0.35 12.1 0 0 340.31 204.00
  L 356.61 204.07
  Q 359.61 204.08 360.01 207.09
  C 360.40 210.05 360.01 213.78 360.02 216.06
  Q 360.05 230.46 360.24 244.85
  A 0.52 0.51 0.6 0 0 360.75 245.36
  L 392.95 245.56
  Q 394.99 245.57 394.99 247.80
  L 394.99 276.49
  A 0.66 0.65 0.0 0 1 394.33 277.14
  L 389.27 277.15
  A 0.50 0.48 -0.6 0 1 388.76 276.67
  L 388.72 252.28
  A 0.52 0.51 0.6 0 0 388.21 251.77
  L 357.39 251.75
  Q 354.06 251.75 354.03 248.46
  L 353.69 210.81
  A 0.48 0.47 87.7 0 0 353.19 210.34
  Z
  M 427.33 87.36
  C 417.07 90.49 411.67 102.53 415.51 112.14
  C 418.43 119.44 424.15 123.38 431.90 124.36
  A 1.22 1.02 -86.6 0 0 433.05 123.14
  L 433.13 119.01
  A 0.81 0.60 -81.7 0 0 432.75 118.31
  C 431.66 117.85 430.12 117.71 429.25 117.40
  C 418.47 113.50 417.45 98.38 428.02 94.04
  Q 431.29 92.70 439.67 92.72
  Q 470.83 92.77 501.98 92.76
  C 505.06 92.76 508.00 93.18 510.71 94.02
  Q 512.10 94.45 511.15 93.35
  Q 505.44 86.62 496.50 86.60
  Q 467.13 86.51 437.77 86.50
  Q 430.14 86.50 427.33 87.36
  Z
  M 478.72 111.36
  Q 480.69 104.76 485.43 99.98
  Q 486.15 99.25 485.12 99.25
  L 444.42 99.26
  Q 443.63 99.26 444.21 99.79
  Q 449.27 104.53 451.16 111.23
  A 0.67 0.65 82.5 0 0 451.79 111.73
  L 478.22 111.73
  A 0.52 0.52 8.2 0 0 478.72 111.36
  Z
  M 521.10 112.76
  C 516.20 96.13 491.36 94.10 485.54 111.12
  A 0.40 0.38 -79.4 0 0 485.88 111.65
  L 491.60 111.68
  A 1.16 0.86 -65.9 0 0 492.40 111.23
  C 500.55 100.69 515.71 105.84 515.72 119.00
  Q 515.76 148.12 515.74 177.26
  A 1.51 1.46 27.3 0 0 516.04 178.15
  Q 519.04 182.13 520.81 186.81
  Q 520.98 187.27 521.16 186.80
  Q 521.98 184.58 521.98 183.93
  Q 522.03 153.20 521.98 122.45
  Q 521.97 115.74 521.10 112.76
  Z
  M 427.05 103.92
  A 1.07 1.06 16.9 0 0 427.88 105.47
  C 436.82 106.49 439.52 113.34 439.51 121.65
  Q 439.48 144.90 439.51 168.20
  A 0.61 0.50 -89.5 0 0 440.00 168.81
  L 445.28 168.86
  A 0.59 0.49 90.0 0 0 445.77 168.27
  Q 445.74 145.00 445.74 121.71
  C 445.74 110.82 442.50 103.13 431.50 99.79
  A 1.41 1.12 36.0 0 0 430.56 99.83
  Q 428.70 100.71 427.05 103.92
  Z
  M 408.44 113.42
  Q 408.00 115.72 407.98 118.06
  Q 407.73 147.52 407.77 176.99
  Q 407.78 184.40 408.90 187.78
  C 414.64 205.04 436.97 204.68 444.52 188.76
  A 0.34 0.33 -77.1 0 0 444.22 188.28
  L 438.14 188.31
  A 1.04 0.92 -70.1 0 0 437.35 188.74
  C 431.72 196.35 420.21 196.46 415.71 187.67
  Q 414.31 184.94 414.27 178.59
  Q 414.12 150.81 414.00 122.97
  Q 414.00 122.57 413.73 122.06
  L 409.11 113.35
  Q 408.63 112.45 408.44 113.42
  Z
  M 506.52 113.80
  C 501.10 117.90 499.21 118.12 491.74 118.15
  Q 472.39 118.25 452.98 118.25
  A 0.59 0.49 -0.0 0 0 452.39 118.74
  L 452.44 123.99
  A 0.60 0.49 0.0 0 0 453.04 124.48
  Q 475.37 124.54 497.68 124.46
  Q 503.52 124.44 508.88 119.85
  A 1.21 1.12 -20.8 0 0 509.29 119.02
  Q 509.41 115.76 507.47 113.86
  A 0.73 0.73 48.6 0 0 506.52 113.80
  Z
  M 433.23 168.54
  C 432.82 156.23 432.97 143.82 433.03 131.45
  A 0.58 0.56 4.6 0 0 432.53 130.88
  Q 426.62 130.12 421.02 127.93
  A 0.35 0.34 10.5 0 0 420.55 128.25
  L 420.54 171.95
  A 0.31 0.31 -13.1 0 0 420.99 172.23
  Q 426.57 169.62 432.75 169.08
  A 0.53 0.52 -4.1 0 0 433.23 168.54
  Z
  M 496.54 168.43
  Q 496.48 168.57 496.47 168.72
  A 0.62 0.47 2.0 0 0 497.08 169.21
  Q 503.16 169.41 508.55 172.22
  A 0.50 0.50 -76.0 0 0 509.28 171.78
  L 509.25 128.64
  A 0.83 0.82 -13.0 0 0 508.06 127.90
  Q 502.77 130.51 497.15 130.78
  A 0.52 0.51 -1.2 0 0 496.65 131.29
  L 496.69 167.90
  Q 496.69 168.08 496.54 168.43
  Z
  M 477.59 131.35
  A 0.36 0.36 0.0 0 0 477.23 130.99
  L 452.61 130.99
  A 0.36 0.36 0.0 0 0 452.25 131.35
  L 452.25 168.63
  A 0.36 0.36 0.0 0 0 452.61 168.99
  L 477.23 168.99
  A 0.36 0.36 0.0 0 0 477.59 168.63
  L 477.59 131.35
  Z
  M 502.51 196.47
  A 1.36 1.36 17.8 0 0 501.49 194.49
  C 491.42 193.09 490.23 184.67 490.24 175.45
  Q 490.28 153.45 490.21 131.43
  A 0.52 0.50 0.6 0 0 489.70 130.93
  L 484.53 130.82
  A 0.50 0.49 1.1 0 0 484.01 131.31
  Q 483.98 154.13 484.01 176.81
  C 484.03 187.98 486.16 195.42 496.85 199.60
  Q 500.20 200.91 502.51 196.47
  Z
  M 420.64 180.94
  Q 420.42 184.01 422.65 186.26
  A 0.52 0.49 -44.2 0 0 423.36 186.25
  Q 428.08 181.64 435.00 181.74
  Q 442.99 181.85 477.07 181.71
  A 0.51 0.50 -1.1 0 0 477.57 181.20
  L 477.46 176.03
  A 0.52 0.52 0.0 0 0 476.95 175.52
  Q 438.44 175.38 431.32 175.55
  Q 425.78 175.69 421.05 180.09
  A 1.29 1.23 -20.5 0 0 420.64 180.94
  Z
  M 497.24 181.71
  C 514.32 184.43 512.58 207.01 495.74 207.21
  Q 470.42 207.51 425.52 207.07
  C 423.17 207.05 420.87 206.34 418.56 205.89
  Q 418.06 205.79 418.38 206.18
  Q 424.46 213.53 434.25 213.53
  Q 463.48 213.54 492.72 213.48
  Q 499.89 213.46 503.05 212.36
  C 522.67 205.48 518.11 176.97 497.06 175.52
  A 0.45 0.42 -89.5 0 0 496.61 175.99
  L 496.77 181.13
  A 0.62 0.55 -87.3 0 0 497.24 181.71
  Z
  M 451.25 188.59
  C 450.36 192.52 447.29 197.24 444.76 199.68
  Q 443.68 200.73 445.19 200.73
  L 485.24 200.74
  Q 486.34 200.74 485.53 199.99
  Q 480.50 195.29 478.66 188.73
  A 0.67 0.67 81.3 0 0 478.02 188.25
  L 451.66 188.26
  A 0.43 0.42 -83.0 0 0 451.25 188.59
  Z"
/>
<path fill="#ffffff" d="
  M 415.51 112.14
  C 411.67 102.53 417.07 90.49 427.33 87.36
  Q 430.14 86.50 437.77 86.50
  Q 467.13 86.51 496.50 86.60
  Q 505.44 86.62 511.15 93.35
  Q 512.10 94.45 510.71 94.02
  C 508.00 93.18 505.06 92.76 501.98 92.76
  Q 470.83 92.77 439.67 92.72
  Q 431.29 92.70 428.02 94.04
  C 417.45 98.38 418.47 113.50 429.25 117.40
  C 430.12 117.71 431.66 117.85 432.75 118.31
  A 0.81 0.60 -81.7 0 1 433.13 119.01
  L 433.05 123.14
  A 1.22 1.02 -86.6 0 1 431.90 124.36
  C 424.15 123.38 418.43 119.44 415.51 112.14
  Z"
/>
<path fill="#ffffff" d="
  M 478.72 111.36
  A 0.52 0.52 8.2 0 1 478.22 111.73
  L 451.79 111.73
  A 0.67 0.65 82.5 0 1 451.16 111.23
  Q 449.27 104.53 444.21 99.79
  Q 443.63 99.26 444.42 99.26
  L 485.12 99.25
  Q 486.15 99.25 485.43 99.98
  Q 480.69 104.76 478.72 111.36
  Z"
/>
<path fill="#ffffff" d="
  M 485.54 111.12
  C 491.36 94.10 516.20 96.13 521.10 112.76
  Q 521.97 115.74 521.98 122.45
  Q 522.03 153.20 521.98 183.93
  Q 521.98 184.58 521.16 186.80
  Q 520.98 187.27 520.81 186.81
  Q 519.04 182.13 516.04 178.15
  A 1.51 1.46 27.3 0 1 515.74 177.26
  Q 515.76 148.12 515.72 119.00
  C 515.71 105.84 500.55 100.69 492.40 111.23
  A 1.16 0.86 -65.9 0 1 491.60 111.68
  L 485.88 111.65
  A 0.40 0.38 -79.4 0 1 485.54 111.12
  Z"
/>
<path fill="#ffffff" d="
  M 427.05 103.92
  Q 428.70 100.71 430.56 99.83
  A 1.41 1.12 36.0 0 1 431.50 99.79
  C 442.50 103.13 445.74 110.82 445.74 121.71
  Q 445.74 145.00 445.77 168.27
  A 0.59 0.49 -90.0 0 1 445.28 168.86
  L 440.00 168.81
  A 0.61 0.50 -89.5 0 1 439.51 168.20
  Q 439.48 144.90 439.51 121.65
  C 439.52 113.34 436.82 106.49 427.88 105.47
  A 1.07 1.06 16.9 0 1 427.05 103.92
  Z"
/>
<path fill="#ffffff" d="
  M 408.44 113.42
  Q 408.63 112.45 409.11 113.35
  L 413.73 122.06
  Q 414.00 122.57 414.00 122.97
  Q 414.12 150.81 414.27 178.59
  Q 414.31 184.94 415.71 187.67
  C 420.21 196.46 431.72 196.35 437.35 188.74
  A 1.04 0.92 -70.1 0 1 438.14 188.31
  L 444.22 188.28
  A 0.34 0.33 -77.1 0 1 444.52 188.76
  C 436.97 204.68 414.64 205.04 408.90 187.78
  Q 407.78 184.40 407.77 176.99
  Q 407.73 147.52 407.98 118.06
  Q 408.00 115.72 408.44 113.42
  Z"
/>
<path fill="#ffffff" d="
  M 506.52 113.80
  A 0.73 0.73 48.6 0 1 507.47 113.86
  Q 509.41 115.76 509.29 119.02
  A 1.21 1.12 -20.8 0 1 508.88 119.85
  Q 503.52 124.44 497.68 124.46
  Q 475.37 124.54 453.04 124.48
  A 0.60 0.49 -0.0 0 1 452.44 123.99
  L 452.39 118.74
  A 0.59 0.49 -0.0 0 1 452.98 118.25
  Q 472.39 118.25 491.74 118.15
  C 499.21 118.12 501.10 117.90 506.52 113.80
  Z"
/>
<path fill="#ffffff" d="
  M 433.03 131.45
  C 432.97 143.82 432.82 156.23 433.23 168.54
  A 0.53 0.52 -4.1 0 1 432.75 169.08
  Q 426.57 169.62 420.99 172.23
  A 0.31 0.31 -13.1 0 1 420.54 171.95
  L 420.55 128.25
  A 0.35 0.34 10.5 0 1 421.02 127.93
  Q 426.62 130.12 432.53 130.88
  A 0.58 0.56 4.6 0 1 433.03 131.45
  Z"
/>
<path fill="#ffffff" d="
  M 496.69 167.90
  L 496.65 131.29
  A 0.52 0.51 -1.2 0 1 497.15 130.78
  Q 502.77 130.51 508.06 127.90
  A 0.83 0.82 -13.0 0 1 509.25 128.64
  L 509.28 171.78
  A 0.50 0.50 -76.0 0 1 508.55 172.22
  Q 503.16 169.41 497.08 169.21
  A 0.62 0.47 2.0 0 1 496.47 168.72
  Q 496.48 168.57 496.54 168.43
  Q 496.69 168.08 496.69 167.90
  Z"
/>
<rect fill="#ffffff" x="452.25" y="130.99" width="25.34" height="38.00" rx="0.36"/>
<path fill="#ffffff" d="
  M 502.51 196.47
  Q 500.20 200.91 496.85 199.60
  C 486.16 195.42 484.03 187.98 484.01 176.81
  Q 483.98 154.13 484.01 131.31
  A 0.50 0.49 1.1 0 1 484.53 130.82
  L 489.70 130.93
  A 0.52 0.50 0.6 0 1 490.21 131.43
  Q 490.28 153.45 490.24 175.45
  C 490.23 184.67 491.42 193.09 501.49 194.49
  A 1.36 1.36 17.8 0 1 502.51 196.47
  Z"
/>
<path fill="#ffffff" d="
  M 421.05 180.09
  Q 425.78 175.69 431.32 175.55
  Q 438.44 175.38 476.95 175.52
  A 0.52 0.52 0.0 0 1 477.46 176.03
  L 477.57 181.20
  A 0.51 0.50 -1.1 0 1 477.07 181.71
  Q 442.99 181.85 435.00 181.74
  Q 428.08 181.64 423.36 186.25
  A 0.52 0.49 -44.2 0 1 422.65 186.26
  Q 420.42 184.01 420.64 180.94
  A 1.29 1.23 -20.5 0 1 421.05 180.09
  Z"
/>
<path fill="#ffffff" d="
  M 495.74 207.21
  C 512.58 207.01 514.32 184.43 497.24 181.71
  A 0.62 0.55 -87.3 0 1 496.77 181.13
  L 496.61 175.99
  A 0.45 0.42 -89.5 0 1 497.06 175.52
  C 518.11 176.97 522.67 205.48 503.05 212.36
  Q 499.89 213.46 492.72 213.48
  Q 463.48 213.54 434.25 213.53
  Q 424.46 213.53 418.38 206.18
  Q 418.06 205.79 418.56 205.89
  C 420.87 206.34 423.17 207.05 425.52 207.07
  Q 470.42 207.51 495.74 207.21
  Z"
/>
<path fill="#ffffff" d="
  M 444.76 199.68
  C 447.29 197.24 450.36 192.52 451.25 188.59
  A 0.43 0.42 -83.0 0 1 451.66 188.26
  L 478.02 188.25
  A 0.67 0.67 86.5 0 1 478.66 188.73
  Q 480.50 195.29 485.53 199.99
  Q 486.34 200.74 485.24 200.74
  L 445.19 200.73
  Q 443.68 200.73 444.76 199.68
  Z"
/>
<circle fill="#44576d" cx="357.57" cy="315.86" r="10.28"/>
<path fill="#44576d" d="
  M 390.17 363.58
  C 379.27 353.69 383.91 342.21 394.90 336.13
  C 405.38 330.32 418.42 332.33 429.29 337.32
  A 0.87 0.78 13.4 0 1 429.79 338.04
  L 429.97 346.99
  A 0.59 0.53 89.0 0 1 429.45 347.59
  L 424.91 347.67
  A 1.26 0.81 61.1 0 1 424.08 347.22
  C 416.68 338.85 410.32 333.43 398.79 339.99
  C 390.13 344.91 396.96 350.52 402.75 353.94
  C 414.46 360.85 434.73 370.04 437.24 384.66
  C 439.53 397.97 428.39 405.36 416.56 405.81
  Q 399.67 406.46 384.33 399.61
  A 0.80 0.75 12.7 0 1 383.85 398.91
  L 383.83 389.42
  A 0.58 0.54 89.5 0 1 384.36 388.84
  L 388.34 388.82
  A 1.30 0.84 61.1 0 1 389.17 389.27
  C 392.28 392.70 395.67 396.82 399.68 398.72
  C 406.58 401.97 417.38 401.49 423.20 396.67
  Q 425.02 395.16 424.76 392.80
  C 423.48 381.52 398.54 371.18 390.17 363.58
  Z"
/>
<path fill="#44576d" d="
  M 477.23 378.79
  C 466.45 370.90 440.20 360.95 450.50 344.28
  C 459.75 329.31 479.87 330.98 493.73 337.36
  A 0.82 0.77 13.3 0 1 494.20 338.07
  L 494.16 347.32
  A 0.51 0.50 1.1 0 1 493.63 347.82
  L 489.21 347.63
  A 1.21 1.07 68.7 0 1 488.39 347.21
  C 481.19 338.61 473.95 333.40 462.77 340.28
  C 457.05 343.80 459.10 349.22 463.91 352.10
  C 476.02 359.36 498.18 368.91 501.50 383.94
  C 504.24 396.35 494.18 405.17 482.19 405.79
  Q 465.02 406.69 449.03 399.81
  A 1.28 1.27 11.6 0 1 448.25 398.64
  L 448.27 389.31
  A 0.54 0.50 -89.5 0 1 448.78 388.77
  L 452.82 388.86
  A 1.26 0.89 64.2 0 1 453.63 389.31
  C 461.06 398.10 466.79 402.35 477.79 400.51
  C 498.81 397.00 485.75 385.02 477.23 378.79
  Z"
/>
<path fill="#44576d" d="
  M 524.69 397.56
  C 510.58 386.32 508.22 364.34 517.85 349.69
  C 539.51 316.77 597.90 333.89 589.96 377.18
  C 584.42 407.38 546.23 414.73 524.69 397.56
  Z
  M 536.32 386.89
  C 539.82 392.79 545.44 398.78 552.17 400.86
  C 565.10 404.85 573.64 393.45 574.47 382.00
  Q 575.90 362.00 562.60 346.91
  C 557.57 341.21 549.14 336.75 541.62 338.65
  C 521.78 343.69 529.52 375.40 536.32 386.89
  Z"
/>
<path fill="#44576d" d="
  M 208.90 333.22
  A 0.74 0.72 -87.5 0 1 209.62 334.02
  L 209.35 337.50
  A 1.89 1.56 -29.0 0 1 209.00 338.39
  C 205.49 343.07 203.39 347.52 203.53 353.66
  Q 203.83 366.99 204.32 380.29
  Q 204.51 385.72 205.79 388.48
  C 211.12 399.99 231.33 402.12 238.22 391.26
  Q 240.90 387.03 241.11 381.93
  Q 241.49 372.97 241.46 359.32
  C 241.44 349.16 242.18 344.22 236.57 337.71
  A 1.48 1.05 32.4 0 1 236.21 336.83
  L 236.32 333.57
  A 0.55 0.51 0.5 0 1 236.87 333.07
  L 251.97 333.02
  A 0.60 0.52 -1.0 0 1 252.57 333.52
  L 252.75 337.17
  A 1.35 0.81 -33.5 0 1 252.34 338.03
  Q 247.25 343.25 247.26 349.25
  Q 247.28 365.85 247.16 382.46
  C 247.04 398.62 236.97 406.11 222.04 406.36
  C 186.47 406.94 188.99 376.85 189.29 351.75
  C 189.35 346.65 187.68 343.35 184.37 337.60
  Q 183.56 336.19 184.11 333.66
  A 0.62 0.61 -84.2 0 1 184.71 333.16
  L 208.90 333.22
  Z"
/>
<path fill="#44576d" d="
  M 286.80 341.03
  Q 288.35 340.50 289.84 339.78
  C 296.38 336.60 304.08 336.17 311.02 337.98
  C 323.78 341.30 328.61 354.59 329.14 366.52
  C 329.73 379.41 328.10 390.74 337.24 401.35
  A 1.35 0.93 34.4 0 1 337.58 402.23
  L 337.33 405.01
  A 0.63 0.53 2.5 0 1 336.71 405.49
  L 306.06 405.49
  A 0.52 0.51 -0.0 0 1 305.54 404.98
  L 305.50 402.01
  A 1.43 1.17 -29.7 0 1 305.84 401.13
  C 315.00 390.74 314.10 377.12 313.15 363.02
  Q 312.39 351.68 303.88 345.91
  C 295.20 340.03 286.37 342.46 286.22 354.05
  Q 286.05 366.98 286.15 379.85
  C 286.22 388.12 287.96 393.89 292.66 400.06
  C 294.01 401.83 293.99 403.00 293.66 405.06
  A 0.61 0.56 3.8 0 1 293.06 405.54
  L 262.93 405.54
  A 0.58 0.50 -0.5 0 1 262.35 405.05
  L 262.25 402.04
  A 1.46 0.93 -35.3 0 1 262.61 401.16
  C 268.45 394.10 269.76 387.59 269.83 377.81
  C 269.91 367.46 271.51 352.58 266.09 342.58
  C 264.39 339.45 261.76 338.18 262.32 333.57
  A 0.59 0.56 3.3 0 1 262.90 333.08
  L 285.66 333.02
  A 0.54 0.50 89.4 0 1 286.16 333.55
  L 286.27 340.68
  A 0.40 0.38 -10.4 0 0 286.80 341.03
  Z"
/>
<path fill="#44576d" d="
  M 352.44 380.94
  Q 352.79 363.26 352.25 355.00
  Q 351.75 347.23 349.72 343.54
  C 348.05 340.50 345.47 337.28 346.12 333.67
  A 0.62 0.60 -84.8 0 1 346.71 333.16
  L 365.95 333.13
  A 0.54 0.50 89.4 0 1 366.45 333.66
  Q 366.56 371.81 366.54 379.74
  Q 366.51 391.62 372.94 401.12
  A 1.82 1.42 34.1 0 1 373.24 402.04
  L 373.22 404.99
  A 0.52 0.51 -0.0 0 1 372.70 405.50
  L 346.67 405.55
  A 0.57 0.52 -1.0 0 1 346.10 405.05
  L 345.96 402.26
  A 1.67 1.06 -39.1 0 1 346.26 401.36
  Q 352.21 392.48 352.44 380.94
  Z"
/>
<path fill="#44576d" d="
  M 625.01 340.97
  Q 635.92 335.58 646.90 337.36
  C 668.14 340.81 667.97 364.93 668.10 381.00
  Q 668.20 392.65 675.73 401.35
  A 1.35 0.84 36.0 0 1 676.08 402.22
  L 675.82 405.08
  A 0.63 0.53 2.0 0 1 675.20 405.57
  L 644.66 405.56
  A 0.66 0.64 -6.3 0 1 644.04 405.08
  Q 643.33 402.18 644.53 400.80
  C 649.20 395.39 651.15 390.07 651.69 382.54
  Q 652.56 370.62 651.59 361.94
  Q 650.39 351.13 641.69 345.28
  C 635.37 341.04 625.08 342.35 624.57 351.58
  Q 624.16 358.91 624.58 380.36
  C 624.76 388.95 626.77 394.87 631.94 401.13
  A 1.50 1.27 -69.1 0 1 632.25 402.01
  L 632.30 404.95
  A 0.49 0.48 89.4 0 1 631.82 405.45
  L 601.30 405.48
  A 0.52 0.51 89.4 0 1 600.79 404.97
  L 600.73 401.99
  A 1.38 1.32 -26.9 0 1 601.04 401.11
  C 607.28 393.62 608.25 386.99 608.25 376.51
  C 608.25 363.27 610.65 349.18 601.23 337.95
  A 1.54 0.76 39.0 0 1 600.83 337.08
  L 600.84 333.57
  A 0.57 0.51 0.0 0 1 601.41 333.06
  L 623.86 333.07
  A 0.53 0.52 89.4 0 1 624.38 333.59
  L 624.56 340.70
  A 0.31 0.31 -13.6 0 0 625.01 340.97
  Z"
/>
<path fill="#ffffff" d="
  M 552.17 400.86
  C 545.44 398.78 539.82 392.79 536.32 386.89
  C 529.52 375.40 521.78 343.69 541.62 338.65
  C 549.14 336.75 557.57 341.21 562.60 346.91
  Q 575.90 362.00 574.47 382.00
  C 573.64 393.45 565.10 404.85 552.17 400.86
  Z"
/>
</svg>
