<svg xmlns="http://www.w3.org/2000/svg" xmlns:xlink="http://www.w3.org/1999/xlink" version="1.1" x="0px" y="0px"
    viewBox="0 0 100 125" enable-background="new 0 0 100 100" xml:space="preserve">
    <g>
        <path fill="#3b3b3b"
            d="M73.63,34.606c-0.254-3.125-0.511-6.268-1-9.365c-1.071-6.773-2.057-12.586-8.293-16.658   c-6.271-4.098-15.051-4.785-21.79-1.604C30.564,12.637,27.904,29.69,26.671,41.335c-1.87,17.658-2.963,32.928-1.467,35.091   c1.152,1.665,3.765-0.296,5.133-0.62c3.289-0.777,5.104,0.958,7.757,2.439c3.813,2.129,5.875-0.346,9.022-2.496   c3.578-2.443,4.918,0.491,8.319,0.809c3.512,0.326,5.425-2.48,8.712-2.934c3.989-0.551,7.632,6.458,11.308,2.773   C75.739,76.115,74.489,45.169,73.63,34.606z M46.333,32.309c-2.493,0-2.665-1.886-2.665-4.213s0.344-4.213,2.665-4.213   c2.322,0,2.666,1.886,2.666,4.213S48.827,32.309,46.333,32.309z M58.388,37.321c-0.025,0.004-0.05,0.006-0.075,0.006   c-0.243,0-0.457-0.178-0.494-0.426c-0.03-0.188-0.35-1.857-2.171-1.857c-1.869,0-2.159,1.782-2.17,1.857   c-0.041,0.273-0.296,0.464-0.569,0.42c-0.273-0.041-0.461-0.296-0.42-0.568c0.141-0.938,0.983-2.709,3.159-2.709   c2.177,0,3.019,1.771,3.16,2.709C58.85,37.025,58.662,37.28,58.388,37.321z M63.943,32.183c-2.418,0-2.585-1.83-2.585-4.087   s0.333-4.087,2.585-4.087c2.252,0,2.586,1.83,2.586,4.087S66.362,32.183,63.943,32.183z M68.957,90.849   c0,2.302-8.51,4.168-19.007,4.168s-19.007-1.866-19.007-4.168c0-2.303,8.51-4.168,19.007-4.168S68.957,88.546,68.957,90.849z" />
    </g>
</svg>