<?xml version="1.0" encoding="UTF-8" standalone="no"?>
<!DOCTYPE svg PUBLIC "-//W3C//DTD SVG 1.1//EN" "http://www.w3.org/Graphics/SVG/1.1/DTD/svg11.dtd">
<svg xmlns="http://www.w3.org/2000/svg" version="1.1" viewBox="0 0 1522 1376">
<path fill="#e6e6e6" d="
  M 609.85 904.60
  A 1.20 1.20 -8.5 0 0 608.70 903.75
  Q 558.34 903.75 508.00 903.74
  C 502.73 903.74 498.22 899.93 498.10 894.47
  Q 496.76 833.12 497.03 772.40
  Q 497.04 769.48 494.12 769.66
  Q 467.98 771.31 442.60 770.57
  C 439.21 770.47 432.88 769.97 430.05 768.05
  C 425.64 765.06 424.98 758.14 427.00 753.78
  Q 459.73 683.11 492.45 612.44
  C 495.81 605.19 497.25 598.83 498.66 589.73
  C 505.21 547.60 523.54 511.39 559.33 487.39
  C 578.34 474.65 600.42 465.38 623.18 462.65
  Q 637.46 460.94 651.59 460.14
  A 0.73 0.72 -87.1 0 0 652.27 459.52
  Q 654.80 443.98 662.58 430.32
  C 665.61 424.99 670.92 418.95 673.52 412.45
  Q 676.24 405.65 678.95 398.85
  C 690.56 369.78 716.04 350.85 747.23 349.17
  C 749.31 349.06 751.27 348.50 752.93 348.46
  C 763.33 348.16 774.03 347.49 784.12 347.49
  Q 859.15 347.55 934.18 348.09
  C 947.20 348.19 961.35 347.45 973.61 349.75
  C 1001.09 354.91 1022.56 371.27 1033.80 397.20
  C 1036.40 403.20 1038.70 412.08 1042.98 418.40
  C 1047.00 424.33 1051.56 430.45 1054.30 436.63
  C 1059.04 447.32 1061.44 460.24 1061.50 471.94
  Q 1061.84 544.14 1061.70 651.00
  C 1061.68 667.69 1062.97 689.61 1055.95 706.43
  Q 1052.44 714.85 1045.04 726.31
  C 1039.08 735.53 1036.03 748.38 1030.41 758.35
  Q 1009.31 795.83 964.45 799.45
  Q 954.16 800.28 928.94 800.36
  Q 864.97 800.57 800.98 800.48
  A 1.89 1.89 13.7 0 0 799.30 801.50
  C 790.75 818.19 779.91 836.58 775.96 854.89
  Q 774.71 860.65 774.72 869.70
  Q 774.78 926.35 774.74 982.90
  A 1.80 1.77 -8.0 0 1 773.43 984.61
  Q 764.38 987.17 755.24 985.06
  A 1.62 1.59 6.7 0 1 753.99 983.51
  Q 754.02 922.04 753.98 860.57
  C 753.96 841.00 766.82 819.69 775.79 802.25
  A 1.23 1.23 -70.9 0 0 774.93 800.48
  Q 773.60 800.22 771.75 800.28
  Q 761.38 800.63 751.01 800.11
  C 721.17 798.64 697.69 783.62 683.32 757.59
  C 677.62 747.28 674.85 735.61 667.40 725.55
  C 660.11 715.72 654.82 704.73 652.73 692.64
  Q 651.80 687.24 651.63 673.82
  C 650.82 610.98 650.72 548.13 650.65 485.24
  Q 650.65 481.72 647.29 481.93
  Q 640.46 482.35 633.75 482.93
  C 577.38 487.78 531.40 525.90 521.02 582.24
  C 519.10 592.63 519.48 604.73 514.52 615.29
  Q 483.47 681.34 452.84 747.42
  A 0.66 0.66 -76.7 0 0 453.42 748.36
  Q 479.59 749.26 505.76 748.95
  C 515.29 748.84 517.59 754.23 517.88 762.94
  C 518.21 773.11 517.83 785.14 517.88 793.44
  Q 518.10 828.29 517.98 863.14
  C 517.96 867.65 518.78 873.93 518.37 879.62
  Q 518.18 882.24 520.80 882.23
  Q 537.42 882.18 555.07 882.64
  C 577.44 883.24 599.84 883.04 622.22 882.98
  Q 626.30 882.98 628.07 884.15
  Q 630.94 886.05 630.95 890.19
  Q 631.05 936.81 630.98 983.44
  Q 630.98 985.76 628.51 985.75
  L 611.82 985.72
  A 1.57 1.55 0.0 0 1 610.25 984.17
  Q 610.25 945.50 610.07 906.50
  Q 610.06 905.26 609.85 904.60
  Z
  M 722.32 482.19
  C 730.47 487.10 741.91 490.93 751.50 491.08
  A 1.67 1.58 -87.7 0 0 753.10 489.51
  L 754.09 474.25
  Q 754.23 472.14 751.96 471.56
  C 747.90 470.53 743.37 469.60 739.78 468.20
  C 708.81 456.06 702.60 410.50 734.02 394.84
  C 743.62 390.06 757.29 389.05 768.50 389.03
  Q 834.89 388.91 973.44 388.98
  Q 990.46 388.99 1006.73 393.77
  Q 1008.30 394.23 1007.20 392.81
  C 993.83 375.54 975.54 369.01 954.25 369.00
  Q 857.47 368.99 760.69 369.01
  C 738.78 369.02 720.51 373.80 706.65 391.66
  C 683.86 421.04 690.57 463.05 722.32 482.19
  Z
  M 813.26 450.22
  C 836.97 450.26 860.60 450.68 884.31 450.22
  Q 891.66 450.08 899.43 450.59
  A 1.87 1.83 -79.6 0 0 901.30 449.27
  Q 907.79 427.75 923.67 411.91
  Q 925.08 410.50 923.00 410.50
  L 789.31 410.50
  Q 788.33 410.50 789.06 411.19
  Q 806.19 427.21 812.63 449.79
  A 0.67 0.60 -7.5 0 0 813.26 450.22
  Z
  M 942.31 450.35
  Q 944.44 450.35 945.77 448.61
  C 963.91 424.91 999.77 423.69 1015.17 451.08
  Q 1021.00 461.45 1021.00 471.76
  Q 1021.01 567.34 1020.99 662.97
  A 1.66 0.64 -81.6 0 0 1021.21 663.96
  Q 1031.38 677.55 1037.64 693.33
  Q 1037.89 693.95 1038.21 693.38
  Q 1040.97 688.40 1040.98 683.50
  Q 1041.11 643.20 1040.96 478.69
  C 1040.95 468.08 1040.20 457.70 1036.25 448.17
  C 1016.07 399.38 941.15 396.01 923.50 449.21
  A 0.90 0.59 -77.0 0 0 923.93 450.36
  L 942.31 450.35
  Z
  M 734.90 429.03
  C 735.77 429.64 737.02 430.36 738.11 430.49
  C 765.74 433.79 774.64 456.98 774.67 481.75
  Q 774.76 558.09 774.75 634.46
  A 0.54 0.50 90.0 0 0 775.25 635.00
  L 793.24 635.09
  A 1.49 1.45 0.2 0 0 794.74 633.64
  Q 794.76 556.16 794.74 478.40
  C 794.74 471.73 793.43 464.16 792.17 457.79
  C 787.57 434.58 772.60 419.67 750.29 412.57
  C 742.60 410.12 736.10 420.65 734.05 426.42
  A 2.26 2.26 -63.1 0 0 734.90 429.03
  Z
  M 692.44 722.81
  Q 710.03 739.22 733.89 738.15
  C 759.07 737.01 779.92 721.77 790.92 699.09
  A 0.51 0.49 -76.1 0 0 790.50 698.36
  L 769.43 698.31
  A 1.25 0.60 -55.7 0 0 768.66 698.76
  C 765.29 702.28 761.75 706.31 758.12 708.99
  C 733.04 727.45 697.27 715.06 693.73 682.49
  Q 692.44 670.64 692.45 654.06
  C 692.48 613.59 693.04 573.02 692.22 532.56
  Q 691.75 509.65 691.76 487.75
  Q 691.76 485.19 690.48 482.79
  L 675.67 455.07
  Q 674.70 453.27 674.28 455.26
  Q 672.90 461.78 672.84 468.75
  Q 672.39 521.12 672.21 573.50
  C 672.20 576.06 671.75 578.56 671.75 580.50
  Q 671.75 624.10 671.75 667.70
  Q 671.75 668.12 672.02 668.60
  Q 672.52 669.46 672.49 670.49
  C 671.93 690.54 677.56 708.93 692.44 722.81
  Z
  M 816.72 490.99
  C 818.09 491.49 818.85 492.00 820.42 492.00
  Q 878.53 492.00 936.65 492.00
  C 937.28 492.00 938.24 491.47 938.75 491.48
  Q 951.22 491.57 963.69 491.35
  C 976.92 491.11 989.11 485.30 998.75 476.77
  A 3.58 3.57 -17.9 0 0 999.91 474.51
  Q 1000.83 466.22 996.09 459.74
  C 994.47 457.53 993.38 455.86 990.69 457.90
  C 979.98 466.02 968.84 471.22 955.50 471.23
  Q 920.79 471.25 886.09 471.26
  C 883.00 471.26 879.38 471.76 876.00 471.75
  Q 847.91 471.73 818.39 471.77
  A 1.89 1.71 0.0 0 0 816.50 473.48
  L 816.50 490.74
  A 0.33 0.24 13.2 0 0 816.72 490.99
  Z
  M 959.97 636.23
  Q 980.03 637.22 998.00 646.09
  Q 1000.00 647.08 1000.00 644.75
  L 1000.00 504.75
  A 1.16 1.16 22.5 0 0 999.66 503.93
  Q 997.82 502.08 995.29 503.33
  Q 979.01 511.40 960.80 512.09
  A 1.41 1.37 88.9 0 0 959.48 513.50
  L 959.45 635.69
  A 0.55 0.54 1.7 0 0 959.97 636.23
  Z
  M 752.76 513.03
  C 739.67 510.45 727.21 507.85 714.87 503.13
  A 1.20 1.19 -79.6 0 0 713.25 504.25
  L 713.26 644.94
  A 1.24 1.19 -12.7 0 0 715.01 646.00
  Q 732.74 637.86 752.18 635.92
  Q 754.05 635.73 754.04 633.93
  C 753.94 618.49 753.25 602.77 753.25 588.00
  Q 753.25 550.76 753.25 513.63
  A 0.61 0.60 -84.9 0 0 752.76 513.03
  Z
  M 919.85 683.18
  C 922.17 707.28 936.34 725.72 958.97 734.04
  C 964.22 735.97 969.44 735.81 973.20 731.70
  C 976.85 727.70 983.01 719.34 973.27 717.91
  C 942.77 713.42 938.57 684.36 938.55 659.50
  Q 938.48 586.66 938.50 514.80
  Q 938.50 512.83 936.43 512.79
  L 920.25 512.49
  A 1.47 1.39 0.6 0 0 918.75 513.88
  Q 918.75 592.34 918.75 671.58
  C 918.75 675.22 919.45 679.08 919.85 683.18
  Z
  M 898.00 515.01
  A 2.02 2.02 0.0 0 0 895.98 512.99
  L 817.52 512.99
  A 2.02 2.02 0.0 0 0 815.50 515.01
  L 815.50 633.97
  A 2.02 2.02 0.0 0 0 817.52 635.99
  L 895.98 635.99
  A 2.02 2.02 0.0 0 0 898.00 633.97
  L 898.00 515.01
  Z
  M 759.01 676.77
  C 805.39 676.55 850.66 676.71 896.36 676.76
  A 0.83 0.82 -0.3 0 0 897.19 675.93
  L 896.95 658.50
  A 1.94 1.76 -0.3 0 0 895.01 656.76
  Q 825.92 656.72 756.83 656.78
  C 739.89 656.79 726.85 659.84 715.05 671.58
  Q 713.27 673.35 713.38 675.99
  Q 713.77 685.33 720.44 691.81
  A 0.95 0.92 -45.0 0 0 721.74 691.79
  Q 737.27 676.88 759.01 676.77
  Z
  M 960.61 676.19
  Q 964.01 677.46 967.19 678.24
  C 1015.51 690.07 1008.58 757.38 958.31 759.10
  C 957.53 759.13 956.55 759.56 955.88 759.56
  Q 868.31 760.03 780.75 759.48
  C 779.29 759.48 778.11 758.94 776.74 758.95
  Q 753.32 759.15 729.91 758.87
  C 722.20 758.78 714.85 756.83 707.35 755.24
  Q 705.13 754.77 706.60 756.49
  Q 726.23 779.44 757.25 779.53
  Q 848.53 779.79 939.82 779.73
  C 949.80 779.72 961.24 779.52 969.26 778.28
  C 988.91 775.22 1006.02 763.66 1014.66 745.79
  C 1023.96 726.55 1021.50 702.24 1009.71 684.64
  Q 992.75 659.33 960.18 656.87
  A 0.63 0.61 -87.9 0 0 959.52 657.50
  L 959.57 674.56
  A 1.79 1.59 -80.9 0 0 960.61 676.19
  Z
  M 921.93 734.57
  Q 906.83 719.45 900.80 698.77
  A 0.71 0.52 79.5 0 0 900.25 698.25
  L 813.50 698.25
  A 0.77 0.73 -81.6 0 0 812.79 698.81
  Q 806.79 719.09 792.12 734.29
  C 790.85 735.61 788.56 738.17 792.81 738.17
  Q 857.75 738.27 922.75 738.24
  Q 924.85 738.24 923.66 736.51
  Q 923.23 735.88 921.93 734.57
  Z"
/>
</svg>
